<?xml version="1.0" encoding="utf-8"?>
<?xml-stylesheet type="text/xsl" href="rss1.xsl"?>
<rss version="2.0" xmlns:atom="http://www.w3.org/2005/Atom" xmlns:content="http://purl.org/rss/1.0/modules/content/" xmlns:dc="http://purl.org/dc/elements/1.1/" xmlns:media="http://search.yahoo.com/mrss/">
<channel>
 <title>Getty</title>
 <link>http://www.gettyimg.com/</link>
 <atom:link href="http://www.gettyimg.com/" rel="self" type="application/rss+xml" />

 
                <item>
                <title><![CDATA[【Albums (lossless)】FLAC - Bread - Bread [Qobuz Hi-Res 24bit/192kHz]]]></title>
                <link><![CDATA[https://sharemania.us/threads/bread-bread-qobuz-hi-res-24bit-192khz.239906/]]></link>
                <description><![CDATA[<article>
<blockquote class="messageText SelectQuoteContainer ugc baseHtml">
<img src="https://static.qobuz.com/images/covers/36/38/0603497893836_600.jpg" class="bbCodeImage LbImage" alt="[​IMG]" data-url="https://static.qobuz.com/images/covers/36/38/0603497893836_600.jpg" style=""> <br>
<span style="font-size: 18px"><b>ABOUT THE ALBUM</b></span><br>
<ul>
<li>1 disc(s) - 12 track(s)</li>
<li>Total length: 00:36:01</li>
<li>Main artists: <a href="https://www.qobuz.com/gb-en/interpreter/bread/174396" target="_blank" class="externalLink" rel="nofollow">Bread</a></li>
<li>Label: <a href="https://www.qobuz.com/gb-en/label/rhino-elektra/download-streaming-albums/7470" target="_blank" class="externalLink" rel="nofollow">Rhino - Elektra</a></li>
<li>Genre: <a href="https://www.qobuz.com/gb-en/genre/pop-rock/download-streaming-albums" target="_blank" class="externalLink" rel="nofollow">Pop/Rock</a> <a href="https://www.qobuz.com/gb-en/genre/pop/download-streaming-albums" target="_blank" class="externalLink" rel="nofollow">Pop</a></li>
</ul><b><span style="color: #ff0000">DOWNLOAD:</span></b><br>
<div class="bbCodeBlock bbCodeVfcHH HiddenContent">
<div class="attribution type">Hidden Content:</div>
<blockquote>You must either reply or click 'Like' to see the hidden information contained here.</blockquote>
</div>
<div class="messageTextEndMarker">&nbsp;</div>
</blockquote>
</article>]]></description>
                <author><![CDATA[olobersykes99]]></author>
                </item>

                
                <item>
                <title><![CDATA[【Music Videos】Bruno Mars - The Town (Brasil) 2023 2160p WEB-DL.AAC2.0.H.265 [4K]]]></title>
                <link><![CDATA[https://sharemania.us/threads/bruno-mars-the-town-brasil-2023-2160p-web-dl-aac2-0-h-265-4k.239907/]]></link>
                <description><![CDATA[<article>
<blockquote class="messageText SelectQuoteContainer ugc baseHtml">
<b><span style="font-size: 26px">Bruno Mars - Live In The Town (Brasil) 2023 [4K]</span></b><br>
<br>
<span style="font-size: 22px"><span style="color: #ff0000">With Chapters Menu</span></span><br>
<br>
Menu<br>
00:00:00.000 : Início<br>
00:00:10.800 : 24K Magic<br>
00:04:12.824 : Finesse<br>
00:07:33.424 : Treasure<br>
00:13:42.358 : Billionaire<br>
00:21:15.160 : Calling All My Lovelies<br>
00:27:35.025 : That's What I Like<br>
00:31:53.505 : Please Me<br>
00:39:16.457 : Versace On The Floor<br>
00:43:46.801 : It Will Rain<br>
00:45:44.071 : Marry You<br>
00:52:22.524 : Runaway Baby<br>
01:00:29.000 : Forget You (Fuck You)<br>
01:01:13.925 : Young, Wild &amp; Free<br>
01:02:02.521 : Grenade<br>
01:03:32.665 : Talking To The Moon<br>
01:05:09.574 : Nothin' On You<br>
01:06:01.319 : Leave The Door Open<br>
01:10:28.249 : When I Was Your Man<br>
01:17:07.168 : Evidências (Instrumental)<br>
01:20:31.586 : Locked Out Of Heaven<br>
01:24:43.025 : Just The Way You Are<br>
01:37:32.460 : Uptown Funk<br>
<br>
<img src="https://i.imgur.com/ELlFSGn.jpeg" class="bbCodeImage LbImage" alt="[​IMG]" data-url="https://i.imgur.com/ELlFSGn.jpeg" style=""><br>
<br>
<div class="ToggleTriggerAnchor bbCodeSpoilerContainer">
<button type="button" class="button bbCodeSpoilerButton ToggleTrigger Tooltip JsOnly" data-target="> .SpoilerTarget"><span>Spoiler: <span class="SpoilerTitle">MediaInfo</span></span></button>
<div class="SpoilerTarget bbCodeSpoilerText">General<br>
Unique ID : 225466898808419264165085488249407039183 (0xA99F585E431BC0A36427EB17DDD466CF)<br>
Complete name : D:\Downloads\SHOWS\The.Town.2023.Bruno.Mars.2160p.GLBO.WEB-DL.AAC2.0.H.265-jeanlucas92.mkv<br>
Format : Matroska<br>
Format version : Version 4<br>
File size : 12.9 GiB<br>
Duration : 1 h 41 min<br>
Overall bit rate : 18.1 Mb/s<br>
Frame rate : 30.000 FPS<br>
Encoded date : 2023-09-10 22:08:30 UTC<br>
Writing application : mkvmerge v79.0 ('Funeral Pyres') 64-bit<br>
Writing library : libebml v1.4.4 + libmatroska v1.7.1 / Lavf58.76.100<br>
<br>
Video<br>
ID : 1<br>
Format : HEVC<br>
Format/Info : High Efficiency Video Coding<br>
Format profile : Main 10@L5.1@High<br>
Codec ID : V_MPEGH/ISO/HEVC<br>
Duration : 1 h 41 min<br>
Bit rate : 18.0 Mb/s<br>
Width : 3 840 pixels<br>
Height : 2 160 pixels<br>
Display aspect ratio : 16:9<br>
Frame rate mode : Constant<br>
Frame rate : 30.000 FPS<br>
Standard : NTSC<br>
Color space : YUV<br>
Chroma subsampling : 4:2:0<br>
Bit depth : 10 bits<br>
Bits/(Pixel*Frame) : 0.072<br>
Time code of first frame : 02:05:20:04<br>
Stream size : 12.8 GiB (99%)<br>
Default : Yes<br>
Forced : No<br>
Color range : Limited<br>
Color primaries : BT.709<br>
Transfer characteristics : BT.709<br>
Matrix coefficients : BT.709<br>
<br>
Audio<br>
ID : 2<br>
Format : AAC LC<br>
Format/Info : Advanced Audio Codec Low Complexity<br>
Codec ID : A_AAC-2<br>
Duration : 1 h 41 min<br>
Bit rate : 125 kb/s<br>
Channel(s) : 2 channels<br>
Channel layout : L R<br>
Sampling rate : 48.0 kHz<br>
Frame rate : 46.875 FPS (1024 SPF)<br>
Compression mode : Lossy<br>
Stream size : 91.4 MiB (1%)<br>
Language : English<br>
Default : Yes<br>
Forced : No<br>
<br>
Menu<br>
00:00:00.000 : Início<br>
00:00:10.800 : 24K Magic<br>
00:04:12.824 : Finesse<br>
00:07:33.424 : Treasure<br>
00:13:42.358 : Billionaire<br>
00:21:15.160 : Calling All My Lovelies<br>
00:27:35.025 : That's What I Like<br>
00:31:53.505 : Please Me<br>
00:39:16.457 : Versace On The Floor<br>
00:43:46.801 : It Will Rain<br>
00:45:44.071 : Marry You<br>
00:52:22.524 : Runaway Baby<br>
01:00:29.000 : Forget You (Fuck You)<br>
01:01:13.925 : Young, Wild &amp; Free<br>
01:02:02.521 : Grenade<br>
01:03:32.665 : Talking To The Moon<br>
01:05:09.574 : Nothin' On You<br>
01:06:01.319 : Leave The Door Open<br>
01:10:28.249 : When I Was Your Man<br>
01:17:07.168 : Evidências (Instrumental)<br>
01:20:31.586 : Locked Out Of Heaven<br>
01:24:43.025 : Just The Way You Are<br>
01:37:32.460 : Uptown Funk</div>
</div><br>
<div class="ToggleTriggerAnchor bbCodeSpoilerContainer">
<button type="button" class="button bbCodeSpoilerButton ToggleTrigger Tooltip JsOnly" data-target="> .SpoilerTarget"><span>Spoiler: <span class="SpoilerTitle">Download</span></span></button>
<div class="SpoilerTarget bbCodeSpoilerText">
<div class="bbCodeBlock bbCodeVfcHH HiddenContent">
<div class="attribution type">Hidden Content:</div>
<blockquote>You must reply before you can see the hidden data contained here.</blockquote>
</div></div>
</div>
<div class="messageTextEndMarker">&nbsp;</div>
</blockquote>
</article>]]></description>
                <author><![CDATA[AlexVicente]]></author>
                </item>

                </channel></rss>